<?xml version="1.0" standalone="no"?><!DOCTYPE svg PUBLIC "-//W3C//DTD SVG 1.1//EN" "http://www.w3.org/Graphics/SVG/1.1/DTD/svg11.dtd" [<!ENTITY nbsp " ">]><svg data-noselect="" viewBox="59.571220397949986 68.81400013050998 596.49893951416 447.3742046356201" width="596.49893951416" ref="svg_canvas" height="447.3742046356201" preserveAspectRatio="none" version="1.1" xmlns="http://www.w3.org/2000/svg" style="background: #080808;"><g id="shape_v6d4ZiOVrt" ref="shape_v6d4ZiOVrt" key="shape_v6d4ZiOVrt" transform="translate(139.57122039795,170) rotate(0,122.49894166828,122.50110244832) scale(1,1)" style="cursor:move;display:inline;opacity:1;" filter="">
            <g style="display:inline"><rect fill="rgba(0,0,0,0)" width="264.99788333657" height="265.00220489664" x="-10" y="-10"></rect><svg version="1.1" id="图层_1" xmlns="http://www.w3.org/2000/svg" xmlns:xlink="http://www.w3.org/1999/xlink" x="0px" y="0px" width="244.99788333657" height="245.00220489664" viewBox="0 -1.002 283.46 283.465" style="enable-background:new 0 -1.002 283.46 283.465;" xml:space="preserve" preserveAspectRatio="none" data-parent="shape_v6d4ZiOVrt">
<g>
	<g>
		<polygon style="" points="103.53,10.866 111.818,22.821 125.75,18.632 116.941,30.21 125.23,42.165 111.497,37.365 
			102.688,48.942 103.01,34.398 89.277,29.598 103.208,25.409 		" fill="#C8A450"></polygon>
		<polygon style="" points="172.161,239.138 180.45,251.094 194.381,246.905 185.572,258.482 193.861,270.438 
			180.128,265.638 171.319,277.215 171.641,262.671 157.908,257.871 171.84,253.682 		" fill="#C8A450"></polygon>
	</g>
	<g>
		<polygon style="" points="42.772,49.48 55.928,55.689 65.898,45.096 64.058,59.527 77.214,65.736 62.921,68.445 
			61.081,82.876 54.088,70.12 39.795,72.829 49.765,62.236 		" fill="#C8A450"></polygon>
		<polygon style="" points="216.345,212.854 229.5,219.063 239.471,208.47 237.631,222.901 250.787,229.11 
			236.494,231.82 234.654,246.25 227.66,233.494 213.367,236.203 223.338,225.61 		" fill="#C8A450"></polygon>
	</g>
	<g>
		<polygon style="" points="9.461,113.3 23.959,112.099 27.297,97.94 32.919,111.357 47.417,110.157 36.393,119.649 
			42.015,133.067 29.581,125.516 18.557,135.009 21.896,120.85 		" fill="#C8A450"></polygon>
	</g>
	<g>
		<polygon style="" points="12.523,185.225 24.478,176.936 20.289,163.005 31.867,171.813 43.822,163.525 
			39.022,177.258 50.599,186.066 36.055,185.745 31.255,199.478 27.067,185.546 		" fill="#C8A450"></polygon>
	</g>
	<g>
		<polygon style="" points="51.137,245.983 57.346,232.827 46.753,222.856 61.184,224.696 67.393,211.54 
			70.102,225.833 84.533,227.673 71.777,234.667 74.486,248.96 63.893,238.989 		" fill="#C8A450"></polygon>
		<polygon style="" points="214.511,72.41 220.721,59.254 210.128,49.283 224.558,51.123 230.768,37.968 
			233.477,52.261 247.908,54.101 235.151,61.094 237.861,75.387 227.268,65.416 		" fill="#C8A450"></polygon>
	</g>
	<g>
		<polygon style="" points="114.957,279.294 113.756,264.796 99.597,261.457 113.014,255.836 111.814,241.338 
			121.307,252.361 134.724,246.739 127.174,259.174 136.666,270.197 122.507,266.859 		" fill="#C8A450"></polygon>
		<polygon style="" points="169.657,47.288 168.456,32.79 154.297,29.452 167.714,23.83 166.514,9.332 176.007,20.355 
			189.424,14.733 181.874,27.168 191.367,38.192 177.207,34.853 		" fill="#C8A450"></polygon>
	</g>
</g>
</svg></g>
        </g><g id="shape_eDbwRzqQGk" ref="shape_eDbwRzqQGk" key="shape_eDbwRzqQGk" transform="translate(216.07015991211,241.72283172607) rotate(0,230.0645,45.214125) scale(1,1)" style="cursor:move;display:inline;opacity:1;" filter="">
            <g style="display:inline"><svg xmlns="http://www.w3.org/2000/svg" version="1.1" xmlns:xlink="http://www.w3.org/1999/xlink" width="360" height="90.77200000000002" viewBox="0 0 360 90.77200000000002" preserveAspectRatio="none" data-parent="shape_eDbwRzqQGk"><rect fill="rgba(0,0,0,0)" width="360" height="90.77200000000002"></rect><g data-width="359.312" transform=""><path d="M9.65-23.18C9.65-26.80 10.32-30.02 11.66-32.83C14.00-37.79 18.49-41.94 25.39-41.94C28.41-41.94 31.16-41.14 33.57-39.53C38.12-36.52 41.14-30.55 41.14-23.18C41.14-19.56 40.47-16.35 39.13-13.53C36.78-8.58 32.29-4.42 25.39-4.42C22.38-4.42 19.63-5.23 17.22-6.83C12.66-9.85 9.65-15.75 9.65-23.18ZM3.35-23.18C3.35-18.49 4.22-14.27 6.03-10.72C9.38-4.15 15.88 0.54 25.39 0.54C29.82 0.54 33.63-0.47 36.98-2.41C43.35-6.10 47.44-13.40 47.44-23.18C47.44-27.87 46.50-32.03 44.69-35.64C41.41-42.21 34.84-46.90 25.39-46.90C20.97-46.90 17.09-45.90 13.74-43.95C7.37-40.27 3.35-32.96 3.35-23.18Z" transform="translate(0 70) " fill="rgb(200, 164, 80)" stroke="rgb(200, 164, 80)" stroke-linecap="square" stroke-linejoin="square" stroke-width="0.112" data-glyph-w="56.786" data-glyph-h="90.048" data-glyph-ascender="70.88600000000001" data-glyph-descender="-19.162000000000003"></path><path d="M21.57 0L21.57-22.04L37.39-46.50L31.16-46.50L19.10-27.27L7.24-46.50L0.67-46.50L16.01-22.04L16.01 0Z" transform="translate(56.786 70) " fill="rgb(200, 164, 80)" stroke="rgb(200, 164, 80)" stroke-linecap="square" stroke-linejoin="square" stroke-width="0.112" data-glyph-w="44.056000000000004" data-glyph-h="90.048" data-glyph-ascender="70.88600000000001" data-glyph-descender="-19.162000000000003"></path><path d="M9.65-23.18C9.65-26.80 10.32-30.02 11.66-32.83C14.00-37.79 18.49-41.94 25.39-41.94C28.41-41.94 31.16-41.14 33.57-39.53C38.12-36.52 41.14-30.55 41.14-23.18C41.14-19.56 40.47-16.35 39.13-13.53C36.78-8.58 32.29-4.42 25.39-4.42C22.38-4.42 19.63-5.23 17.22-6.83C12.66-9.85 9.65-15.75 9.65-23.18ZM3.35-23.18C3.35-18.49 4.22-14.27 6.03-10.72C9.38-4.15 15.88 0.54 25.39 0.54C29.82 0.54 33.63-0.47 36.98-2.41C43.35-6.10 47.44-13.40 47.44-23.18C47.44-27.87 46.50-32.03 44.69-35.64C41.41-42.21 34.84-46.90 25.39-46.90C20.97-46.90 17.09-45.90 13.74-43.95C7.37-40.27 3.35-32.96 3.35-23.18Z" transform="translate(100.84200000000001 70) " fill="rgb(200, 164, 80)" stroke="rgb(200, 164, 80)" stroke-linecap="square" stroke-linejoin="square" stroke-width="0.112" data-glyph-w="56.786" data-glyph-h="90.048" data-glyph-ascender="70.88600000000001" data-glyph-descender="-19.162000000000003"></path><path d="M21.57 0L21.57-22.04L37.39-46.50L31.16-46.50L19.10-27.27L7.24-46.50L0.67-46.50L16.01-22.04L16.01 0Z" transform="translate(157.62800000000001 70) " fill="rgb(200, 164, 80)" stroke="rgb(200, 164, 80)" stroke-linecap="square" stroke-linejoin="square" stroke-width="0.112" data-glyph-w="44.056000000000004" data-glyph-h="90.048" data-glyph-ascender="70.88600000000001" data-glyph-descender="-19.162000000000003"></path><path d="M9.65-23.18C9.65-26.80 10.32-30.02 11.66-32.83C14.00-37.79 18.49-41.94 25.39-41.94C28.41-41.94 31.16-41.14 33.57-39.53C38.12-36.52 41.14-30.55 41.14-23.18C41.14-19.56 40.47-16.35 39.13-13.53C36.78-8.58 32.29-4.42 25.39-4.42C22.38-4.42 19.63-5.23 17.22-6.83C12.66-9.85 9.65-15.75 9.65-23.18ZM3.35-23.18C3.35-18.49 4.22-14.27 6.03-10.72C9.38-4.15 15.88 0.54 25.39 0.54C29.82 0.54 33.63-0.47 36.98-2.41C43.35-6.10 47.44-13.40 47.44-23.18C47.44-27.87 46.50-32.03 44.69-35.64C41.41-42.21 34.84-46.90 25.39-46.90C20.97-46.90 17.09-45.90 13.74-43.95C7.37-40.27 3.35-32.96 3.35-23.18Z" transform="translate(201.68400000000003 70) " fill="rgb(200, 164, 80)" stroke="rgb(200, 164, 80)" stroke-linecap="square" stroke-linejoin="square" stroke-width="0.112" data-glyph-w="56.786" data-glyph-h="90.048" data-glyph-ascender="70.88600000000001" data-glyph-descender="-19.162000000000003"></path><path d="M21.57 0L21.57-22.04L37.39-46.50L31.16-46.50L19.10-27.27L7.24-46.50L0.67-46.50L16.01-22.04L16.01 0Z" transform="translate(258.47 70) " fill="rgb(200, 164, 80)" stroke="rgb(200, 164, 80)" stroke-linecap="square" stroke-linejoin="square" stroke-width="0.112" data-glyph-w="44.056000000000004" data-glyph-h="90.048" data-glyph-ascender="70.88600000000001" data-glyph-descender="-19.162000000000003"></path><path d="M9.65-23.18C9.65-26.80 10.32-30.02 11.66-32.83C14.00-37.79 18.49-41.94 25.39-41.94C28.41-41.94 31.16-41.14 33.57-39.53C38.12-36.52 41.14-30.55 41.14-23.18C41.14-19.56 40.47-16.35 39.13-13.53C36.78-8.58 32.29-4.42 25.39-4.42C22.38-4.42 19.63-5.23 17.22-6.83C12.66-9.85 9.65-15.75 9.65-23.18ZM3.35-23.18C3.35-18.49 4.22-14.27 6.03-10.72C9.38-4.15 15.88 0.54 25.39 0.54C29.82 0.54 33.63-0.47 36.98-2.41C43.35-6.10 47.44-13.40 47.44-23.18C47.44-27.87 46.50-32.03 44.69-35.64C41.41-42.21 34.84-46.90 25.39-46.90C20.97-46.90 17.09-45.90 13.74-43.95C7.37-40.27 3.35-32.96 3.35-23.18Z" transform="translate(302.526 70) " fill="rgb(200, 164, 80)" stroke="rgb(200, 164, 80)" stroke-linecap="square" stroke-linejoin="square" stroke-width="0.112" data-glyph-w="56.786" data-glyph-h="90.048" data-glyph-ascender="70.88600000000001" data-glyph-descender="-19.162000000000003"></path></g></svg></g>
        </g><g id="shape_ehoEzLOWMX" ref="shape_ehoEzLOWMX" key="shape_ehoEzLOWMX" transform="translate(384.56909179688,337.4658203125) rotate(0,92.738525390625,13.8505859375) scale(1,1)" style="cursor:move;display:inline;opacity:1;" filter="">
            <g style="display:inline"><svg xmlns="http://www.w3.org/2000/svg" version="1.1" xmlns:xlink="http://www.w3.org/1999/xlink" width="136" height="28.263671875" viewBox="0 0 136 28.263671875" preserveAspectRatio="none" data-parent="shape_ehoEzLOWMX"><rect fill="rgba(0,0,0,0)" width="136" height="28.263671875"></rect><g data-width="135.115234375" transform=""><path d="M0.83-6.48L0.83-6.48Q0.83-10.08 2.83-11.82L2.83-11.82Q4.50-13.26 6.91-13.26L6.91-13.26Q9.58-13.26 11.28-11.51Q12.98-9.75 12.98-6.67L12.98-6.67Q12.98-4.16 12.23-2.73Q11.47-1.29 10.04-0.50Q8.61 0.29 6.91 0.29L6.91 0.29Q4.19 0.29 2.51-1.45Q0.83-3.20 0.83-6.48ZM3.09-6.48L3.09-6.48Q3.09-3.99 4.17-2.75Q5.26-1.51 6.91-1.51L6.91-1.51Q8.54-1.51 9.63-2.76Q10.72-4.00 10.72-6.56L10.72-6.56Q10.72-8.96 9.63-10.20Q8.53-11.44 6.91-11.44L6.91-11.44Q5.26-11.44 4.17-10.21Q3.09-8.97 3.09-6.48Z" transform="translate(0 22) " fill="rgb(200, 164, 80)" stroke="rgb(200, 164, 80)" stroke-linecap="square" stroke-linejoin="square" stroke-width="0.042" data-glyph-w="19.90380859375" data-glyph-h="27.9296875" data-glyph-ascender="22.6318359375" data-glyph-descender="-5.2978515625"></path><path d="M1.55 4.99L1.55 4.99L1.31 2.93Q2.03 3.13 2.56 3.13L2.56 3.13Q3.30 3.13 3.74 2.88Q4.17 2.64 4.46 2.20L4.46 2.20Q4.66 1.87 5.13 0.56L5.13 0.56Q5.19 0.38 5.32 0.02L5.32 0.02L0.40-12.96L2.77-12.96L5.47-5.46Q5.99-4.03 6.41-2.45L6.41-2.45Q6.79-3.97 7.31-5.41L7.31-5.41L10.08-12.96L12.28-12.96L7.35 0.22Q6.56 2.36 6.12 3.16L6.12 3.16Q5.53 4.25 4.77 4.75Q4.02 5.26 2.97 5.26L2.97 5.26Q2.33 5.26 1.55 4.99Z" transform="translate(19.90380859375 22) " fill="rgb(200, 164, 80)" stroke="rgb(200, 164, 80)" stroke-linecap="square" stroke-linejoin="square" stroke-width="0.042" data-glyph-w="18.5" data-glyph-h="27.9296875" data-glyph-ascender="22.6318359375" data-glyph-descender="-5.2978515625"></path><path d="M0.83-6.48L0.83-6.48Q0.83-10.08 2.83-11.82L2.83-11.82Q4.50-13.26 6.91-13.26L6.91-13.26Q9.58-13.26 11.28-11.51Q12.98-9.75 12.98-6.67L12.98-6.67Q12.98-4.16 12.23-2.73Q11.47-1.29 10.04-0.50Q8.61 0.29 6.91 0.29L6.91 0.29Q4.19 0.29 2.51-1.45Q0.83-3.20 0.83-6.48ZM3.09-6.48L3.09-6.48Q3.09-3.99 4.17-2.75Q5.26-1.51 6.91-1.51L6.91-1.51Q8.54-1.51 9.63-2.76Q10.72-4.00 10.72-6.56L10.72-6.56Q10.72-8.96 9.63-10.20Q8.53-11.44 6.91-11.44L6.91-11.44Q5.26-11.44 4.17-10.21Q3.09-8.97 3.09-6.48Z" transform="translate(38.40380859375 22) " fill="rgb(200, 164, 80)" stroke="rgb(200, 164, 80)" stroke-linecap="square" stroke-linejoin="square" stroke-width="0.042" data-glyph-w="19.90380859375" data-glyph-h="27.9296875" data-glyph-ascender="22.6318359375" data-glyph-descender="-5.2978515625"></path><path d="M1.55 4.99L1.55 4.99L1.31 2.93Q2.03 3.13 2.56 3.13L2.56 3.13Q3.30 3.13 3.74 2.88Q4.17 2.64 4.46 2.20L4.46 2.20Q4.66 1.87 5.13 0.56L5.13 0.56Q5.19 0.38 5.32 0.02L5.32 0.02L0.40-12.96L2.77-12.96L5.47-5.46Q5.99-4.03 6.41-2.45L6.41-2.45Q6.79-3.97 7.31-5.41L7.31-5.41L10.08-12.96L12.28-12.96L7.35 0.22Q6.56 2.36 6.12 3.16L6.12 3.16Q5.53 4.25 4.77 4.75Q4.02 5.26 2.97 5.26L2.97 5.26Q2.33 5.26 1.55 4.99Z" transform="translate(58.3076171875 22) " fill="rgb(200, 164, 80)" stroke="rgb(200, 164, 80)" stroke-linecap="square" stroke-linejoin="square" stroke-width="0.042" data-glyph-w="18.5" data-glyph-h="27.9296875" data-glyph-ascender="22.6318359375" data-glyph-descender="-5.2978515625"></path><path d="M0.83-6.48L0.83-6.48Q0.83-10.08 2.83-11.82L2.83-11.82Q4.50-13.26 6.91-13.26L6.91-13.26Q9.58-13.26 11.28-11.51Q12.98-9.75 12.98-6.67L12.98-6.67Q12.98-4.16 12.23-2.73Q11.47-1.29 10.04-0.50Q8.61 0.29 6.91 0.29L6.91 0.29Q4.19 0.29 2.51-1.45Q0.83-3.20 0.83-6.48ZM3.09-6.48L3.09-6.48Q3.09-3.99 4.17-2.75Q5.26-1.51 6.91-1.51L6.91-1.51Q8.54-1.51 9.63-2.76Q10.72-4.00 10.72-6.56L10.72-6.56Q10.72-8.96 9.63-10.20Q8.53-11.44 6.91-11.44L6.91-11.44Q5.26-11.44 4.17-10.21Q3.09-8.97 3.09-6.48Z" transform="translate(76.8076171875 22) " fill="rgb(200, 164, 80)" stroke="rgb(200, 164, 80)" stroke-linecap="square" stroke-linejoin="square" stroke-width="0.042" data-glyph-w="19.90380859375" data-glyph-h="27.9296875" data-glyph-ascender="22.6318359375" data-glyph-descender="-5.2978515625"></path><path d="M1.55 4.99L1.55 4.99L1.31 2.93Q2.03 3.13 2.56 3.13L2.56 3.13Q3.30 3.13 3.74 2.88Q4.17 2.64 4.46 2.20L4.46 2.20Q4.66 1.87 5.13 0.56L5.13 0.56Q5.19 0.38 5.32 0.02L5.32 0.02L0.40-12.96L2.77-12.96L5.47-5.46Q5.99-4.03 6.41-2.45L6.41-2.45Q6.79-3.97 7.31-5.41L7.31-5.41L10.08-12.96L12.28-12.96L7.35 0.22Q6.56 2.36 6.12 3.16L6.12 3.16Q5.53 4.25 4.77 4.75Q4.02 5.26 2.97 5.26L2.97 5.26Q2.33 5.26 1.55 4.99Z" transform="translate(96.71142578125 22) " fill="rgb(200, 164, 80)" stroke="rgb(200, 164, 80)" stroke-linecap="square" stroke-linejoin="square" stroke-width="0.042" data-glyph-w="18.5" data-glyph-h="27.9296875" data-glyph-ascender="22.6318359375" data-glyph-descender="-5.2978515625"></path><path d="M0.83-6.48L0.83-6.48Q0.83-10.08 2.83-11.82L2.83-11.82Q4.50-13.26 6.91-13.26L6.91-13.26Q9.58-13.26 11.28-11.51Q12.98-9.75 12.98-6.67L12.98-6.67Q12.98-4.16 12.23-2.73Q11.47-1.29 10.04-0.50Q8.61 0.29 6.91 0.29L6.91 0.29Q4.19 0.29 2.51-1.45Q0.83-3.20 0.83-6.48ZM3.09-6.48L3.09-6.48Q3.09-3.99 4.17-2.75Q5.26-1.51 6.91-1.51L6.91-1.51Q8.54-1.51 9.63-2.76Q10.72-4.00 10.72-6.56L10.72-6.56Q10.72-8.96 9.63-10.20Q8.53-11.44 6.91-11.44L6.91-11.44Q5.26-11.44 4.17-10.21Q3.09-8.97 3.09-6.48Z" transform="translate(115.21142578125 22) " fill="rgb(200, 164, 80)" stroke="rgb(200, 164, 80)" stroke-linecap="square" stroke-linejoin="square" stroke-width="0.042" data-glyph-w="19.90380859375" data-glyph-h="27.9296875" data-glyph-ascender="22.6318359375" data-glyph-descender="-5.2978515625"></path></g></svg></g>
        </g></svg>